<?xml version="1.0" encoding="UTF-8" standalone="no"?>
<!-- Created with Inkscape (http://www.inkscape.org/) -->

<svg
   width="560"
   height="110"
   viewBox="0 0 560 110"
   version="1.1"
   id="svg5"
   inkscape:version="1.3.2 (091e20ef0f, 2023-11-25)"
   sodipodi:docname="logo.svg"
   inkscape:export-filename="logo.png"
   inkscape:export-xdpi="300"
   inkscape:export-ydpi="300"
   xmlns:inkscape="http://www.inkscape.org/namespaces/inkscape"
   xmlns:sodipodi="http://sodipodi.sourceforge.net/DTD/sodipodi-0.dtd"
   xmlns="http://www.w3.org/2000/svg"
   xmlns:svg="http://www.w3.org/2000/svg">
  <sodipodi:namedview
     id="namedview7"
     pagecolor="#003472"
     bordercolor="#000000"
     borderopacity="0.25"
     inkscape:showpageshadow="2"
     inkscape:pageopacity="1"
     inkscape:pagecheckerboard="0"
     inkscape:deskcolor="#d1d1d1"
     inkscape:document-units="mm"
     showgrid="true"
     inkscape:zoom="7.6035544"
     inkscape:cx="443.80559"
     inkscape:cy="44.65017"
     inkscape:window-width="1920"
     inkscape:window-height="1044"
     inkscape:window-x="0"
     inkscape:window-y="0"
     inkscape:window-maximized="1"
     inkscape:current-layer="layer1" />
  <defs
     id="defs2">
    <rect
       x="21.615517"
       y="135.72313"
       width="63.026649"
       height="56.395519"
       id="rect9317" />
    <rect
       x="49.793419"
       y="148.58095"
       width="359.33386"
       height="124.43305"
       id="rect235" />
  </defs>
  <g
     inkscape:label="图层 1"
     inkscape:groupmode="layer"
     id="layer1">
    <g
       id="g1341">
      <path
         id="rect304"
         style="fill:#ffffff;stroke-width:0.301312"
         inkscape:label="V"
         d="M 27,30 H 37.000001 V 80.000004 H 27 Z m 3,40 H 65.000004 V 80 H 30 Z M 30,50 H 59.999998 V 60 H 30 Z M 30,30 H 65.000004 V 40 H 30 Z" />
    </g>
    <g
       id="g496">
      <rect
         style="fill:#ffffff;stroke-width:0.309292"
         id="rect366"
         width="39.999996"
         height="10"
         x="75"
         y="30" />
      <rect
         style="fill:#ffffff;stroke-width:0.307305"
         id="rect368"
         width="10"
         height="50"
         x="90"
         y="30" />
    </g>
    <g
       id="g501">
      <rect
         style="fill:#ffffff;stroke-width:0.303"
         id="rect431"
         width="10"
         height="50"
         x="125"
         y="30" />
      <rect
         style="fill:#ffffff;stroke-width:0.323921"
         id="rect433"
         width="40"
         height="10"
         x="125"
         y="50" />
      <rect
         style="fill:#ffffff;stroke-width:0.303"
         id="rect435"
         width="10"
         height="50"
         x="155"
         y="30" />
    </g>
    <g
       id="g585">
      <path
         id="path574"
         style="fill:#ffffff;stroke-width:0.303"
         d="m 235,30 30,45 v 5 H 255 L 225,35 v -5 h 10 -10 z m 20,0 h 10 v 50 h -10 z m -30,0 h 10 v 50 h -10 z" />
    </g>
    <g
       id="g1012"
       transform="translate(2)">
      <path
         id="path829"
         style="fill:#ffffff;stroke-width:0.309248"
         d="m 470,80 h -11 l -15,-31 11,1 z m 0,-50 -30,40 h -10 v -3 l 28,-37 z m -40,0 h 10 v 50 h -10 z" />
    </g>
    <path
       id="rect1211"
       style="fill:#ffffff;stroke-width:0.303"
       d="m 480,70 h 10 v 10 h -10 z" />
    <path
       id="path3"
       style="fill:#ffffff;fill-opacity:1;fill-rule:evenodd;stroke:#24446d;stroke-width:0;stroke-linecap:round;stroke-linejoin:round"
       d="m 185,30 -10,10 v 30 l 10,10 h 20 L 215,70 V 40 L 205,30 Z m 5,10 h 10 l 5,5 v 20 l -5,5 h -10 l -5,-5 V 45 Z" />
    <path
       id="path3-3"
       style="fill:#ffffff;fill-opacity:1;fill-rule:evenodd;stroke:#24446d;stroke-width:0;stroke-linecap:round;stroke-linejoin:round"
       d="m 345,30 -10,10 v 30 l 10,10 h 20 L 375,70 V 40 L 365,30 Z m 5,10 h 10 l 5,5 v 20 l -5,5 h -10 l -5,-5 V 45 Z" />
    <path
       style="fill:#ffffff;fill-opacity:1;fill-rule:evenodd;stroke:#24446d;stroke-width:0;stroke-linecap:round;stroke-linejoin:round"
       d="m 275,30 h 10 v 35 l 3,5 h 5 l 2,-5 V 30 h 10 v 35 l 2,5 h 5 l 3,-5 V 30 h 10 v 35 l -8,15 H 302 L 300.0102,75.692436 298,80 h -16 l -7,-15 z"
       id="path4" />
    <path
       id="path5"
       style="fill:#ffffff;fill-opacity:1;fill-rule:evenodd;stroke:#24446d;stroke-width:0;stroke-linecap:round;stroke-linejoin:round"
       d="M 385 30 L 385 80 L 395 80 L 395.04688 65 L 402 65 L 412 80 L 423 80 L 413 65 L 423 55 L 423 40 L 413 30 L 385 30 z M 410 40 L 413 43 L 413 52 L 410 55 L 395 55 L 395 40.148438 L 410 40 z " />
  </g>
</svg>
