<?xml version="1.0" standalone="no"?>
<!DOCTYPE svg PUBLIC "-//W3C//DTD SVG 20010904//EN"
 "http://www.w3.org/TR/2001/REC-SVG-20010904/DTD/svg10.dtd">
<svg version="1.0" xmlns="http://www.w3.org/2000/svg"
 width="128.000000pt" height="128.000000pt" viewBox="0 0 128.000000 128.000000"
 preserveAspectRatio="xMidYMid meet">
<metadata>
Created by potrace 1.14, written by Peter Selinger 2001-2017
</metadata>
<g transform="translate(0.000000,128.000000) scale(0.100000,-0.100000)"
fill="#000000" stroke="none">
<path d="M871 1115 c-1 -6 -91 -10 -251 -9 -295 1 -278 8 -276 -114 1 -77 1
-78 -24 -78 -14 1 -31 5 -39 10 -10 6 -12 6 -7 -2 10 -16 -7 -15 -23 1 -11 10
-13 10 -7 0 4 -7 3 -13 -3 -13 -5 0 -12 6 -14 13 -4 10 -6 10 -6 0 -1 -7 -7
-13 -15 -13 -8 0 -17 6 -19 13 -4 10 -6 10 -6 0 -1 -7 -12 -13 -25 -13 -34 0
-57 -10 -50 -22 4 -6 -4 -19 -17 -30 -18 -14 -19 -17 -5 -11 13 4 17 3 12 -5
-4 -7 -2 -12 4 -12 6 0 8 -5 5 -10 -4 -6 -12 -7 -18 -4 -8 5 -8 3 0 -7 7 -7
13 -17 13 -22 0 -4 -6 -5 -13 -1 -9 6 -9 4 0 -7 15 -15 18 -43 4 -34 -5 3 -13
1 -16 -5 -4 -6 -1 -9 6 -8 7 2 14 -7 15 -18 0 -12 4 -26 8 -32 3 -6 -2 -15
-11 -21 -10 -6 -13 -11 -7 -11 23 0 22 -29 -2 -53 -20 -20 -21 -25 -7 -23 10
0 19 -7 21 -18 3 -13 0 -16 -10 -11 -10 6 -11 5 0 -6 16 -17 16 -42 0 -33 -10
6 -10 4 0 -7 16 -17 16 -32 -1 -23 -9 6 -9 4 -1 -7 6 -8 11 -26 10 -41 -1 -14
3 -24 8 -21 5 4 7 -1 3 -10 -3 -9 -1 -19 5 -23 7 -5 8 -2 4 7 -4 8 3 3 15 -11
12 -14 20 -18 17 -9 -5 12 1 16 28 16 19 0 34 -4 34 -8 0 -4 -8 -6 -18 -4 -11
2 -19 -3 -19 -10 0 -8 5 -11 11 -7 18 11 60 10 76 -2 13 -10 13 -9 1 7 -8 10
-20 16 -28 13 -7 -3 -13 -1 -13 3 0 12 86 8 97 -3 4 -5 2 -6 -4 -2 -7 4 -13 2
-13 -3 0 -16 20 -13 26 4 10 25 19 17 20 -20 1 -21 -3 -32 -9 -28 -6 4 -7 1
-1 -8 12 -20 12 -73 0 -81 -7 -5 -7 -8 2 -8 6 0 12 -9 12 -20 0 -23 26 -39 53
-32 15 4 18 2 12 -9 -8 -12 -6 -12 8 0 14 11 17 11 17 0 0 -9 3 -10 8 -3 10
14 153 15 171 0 11 -8 13 -8 8 0 -8 14 60 14 82 0 9 -6 12 -5 7 2 -8 14 36 12
46 -3 5 -7 8 -6 8 2 0 15 71 15 89 0 12 -9 13 -9 7 1 -5 8 1 12 18 12 14 0 26
-6 26 -12 0 -10 2 -10 9 0 5 8 23 13 42 12 78 -5 145 2 162 15 16 11 19 29 20
102 1 66 5 91 17 100 8 6 12 15 7 19 -4 4 -7 2 -7 -4 0 -7 -3 -12 -8 -12 -4 0
-7 139 -7 309 -1 177 3 307 8 304 5 -3 5 3 -1 13 -5 11 -9 31 -8 46 2 38 -27
46 -156 45 -64 -1 -110 2 -112 8 -3 7 -5 7 -5 0z"/>
<path d="M295 941 c-3 -5 -2 -12 3 -15 5 -3 9 1 9 9 0 17 -3 19 -12 6z"/>
<path d="M76 682 c-3 -5 1 -9 9 -9 8 0 12 4 9 9 -3 4 -7 8 -9 8 -2 0 -6 -4 -9
-8z"/>
<path d="M75 620 c-3 -6 1 -7 9 -4 18 7 21 14 7 14 -6 0 -13 -4 -16 -10z"/>
</g>
</svg>
